<svg version="1.1" id="Layer_1" xmlns="http://www.w3.org/2000/svg" xmlns:xlink="http://www.w3.org/1999/xlink" x="0px" y="0px"
	 width="100%" viewBox="0 0 400 400" enable-background="new 0 0 400 400" xml:space="preserve">
<path fill="#9B6FEA" opacity="1.000000" stroke="none" 
	d="
M265.000000,401.000000 
	C176.666672,401.000000 88.833336,401.000000 1.000000,401.000000 
	C1.000000,267.666656 1.000000,134.333328 1.000000,1.000000 
	C134.333328,1.000000 267.666656,1.000000 401.000000,1.000000 
	C401.000000,134.333328 401.000000,267.666656 401.000000,401.000000 
	C355.833344,401.000000 310.666656,401.000000 265.000000,401.000000 
M153.011734,188.990799 
	C153.011734,188.990799 153.011505,188.893921 153.315460,189.313354 
	C153.574020,189.541016 153.832581,189.768677 154.026489,189.973724 
	C154.026489,189.973724 154.058334,189.913071 154.014862,190.861679 
	C154.007812,242.951080 153.991135,295.040466 154.031387,347.129852 
	C154.032883,349.069214 154.588684,351.008148 155.089325,353.350403 
	C156.413895,352.176331 157.940491,351.164368 159.032318,349.803558 
	C172.335678,333.222931 185.575150,316.591034 199.401108,299.672333 
	C199.945328,298.795441 200.489563,297.918549 200.996307,297.006592 
	C200.996307,297.006592 201.045090,297.021118 201.424362,296.724274 
	C201.660446,296.500519 201.848923,296.242065 202.004852,296.003113 
	C202.004852,296.003113 201.949539,295.992645 202.359299,295.695312 
	C202.565063,295.429474 202.770844,295.163635 202.933273,294.969818 
	C202.933273,294.969818 202.862076,294.925171 203.491714,294.760742 
	C203.900864,294.069366 204.310013,293.377960 204.720123,292.782410 
	C204.720123,292.782410 204.648178,292.719116 205.352615,292.652740 
	C205.862228,291.717468 206.371841,290.782196 206.902237,289.919861 
	C206.902237,289.919861 206.828094,289.904114 207.508057,289.702881 
	C207.969284,288.936951 208.430496,288.171051 208.854752,287.198914 
	C208.854752,287.198914 209.015106,287.064117 209.695511,286.882202 
	C210.793259,285.243774 211.891006,283.605347 213.010254,282.003448 
	C213.010254,282.003448 212.967865,282.002075 213.369904,281.697906 
	C213.572754,281.431305 213.775604,281.164703 213.946243,280.969360 
	C213.946243,280.969360 213.875671,280.935699 214.504013,280.768402 
	C214.900284,280.071533 215.296555,279.374634 215.812637,278.748169 
	C215.812637,278.748169 215.738647,278.865814 216.192902,278.587189 
	C216.403580,278.304901 216.614273,278.022614 216.700806,277.832703 
	C216.700806,277.832703 216.611725,277.706207 217.425812,277.588379 
	C223.610718,276.805054 229.795624,276.021729 236.676727,275.215576 
	C237.126892,275.316864 237.577057,275.418152 238.435074,276.079651 
	C243.932648,276.484436 249.430206,276.889221 255.646957,277.256073 
	C256.109772,277.367523 256.572601,277.478973 257.379669,278.166840 
	C262.576965,278.514954 267.774261,278.863098 273.759888,279.191742 
	C274.522400,279.362061 275.284912,279.532379 276.440338,280.220398 
	C281.610443,280.565155 286.780548,280.909912 292.670135,281.252380 
	C293.126709,281.381287 293.583282,281.510162 294.269958,282.200134 
	C295.897247,284.266418 297.810974,284.273987 297.713470,281.546204 
	C297.622559,279.003448 295.931915,276.517914 294.483185,273.460663 
	C282.677155,244.665634 270.920471,215.850113 258.995667,187.104370 
	C257.670654,183.910339 258.113464,181.598099 259.953552,178.837616 
	C274.636444,156.810425 289.193359,134.699234 303.780762,112.608452 
	C304.640289,111.306808 305.429871,109.958992 306.594177,108.080635 
	C304.202576,108.080635 302.711212,107.997810 301.231293,108.093040 
	C278.848389,109.533203 256.456238,110.857094 234.095123,112.582466 
	C230.029968,112.896126 228.218201,111.987282 226.706955,108.177750 
	C219.343338,89.615555 211.692871,71.166634 204.039948,52.720757 
	C203.460129,51.323215 202.069931,50.261879 200.438492,49.466759 
	C200.001541,51.162872 199.564590,52.858986 199.212616,54.754345 
	C199.212616,54.754345 199.083862,54.928532 198.646393,55.487534 
	C198.480286,56.170948 198.314178,56.854366 198.221695,57.753582 
	C198.221695,57.753582 198.092377,57.941380 197.649918,58.494808 
	C197.483032,59.177193 197.316132,59.859577 197.206223,60.774128 
	C197.206223,60.774128 197.071060,60.971310 196.476379,61.393810 
	C196.049423,62.984234 195.622482,64.574654 195.150711,66.082481 
	C195.150711,66.082481 195.235916,66.042854 194.694336,66.566727 
	C194.182114,68.559731 193.669891,70.552727 193.215363,72.772972 
	C193.215363,72.772972 193.077606,72.962692 192.478683,73.386322 
	C191.711655,76.100029 190.944641,78.813736 190.231155,81.777885 
	C190.231155,81.777885 190.093109,81.993599 189.407654,82.273483 
	C189.017303,83.910301 188.626953,85.547127 188.218185,87.094681 
	C188.218185,87.094681 188.308731,87.084145 187.777710,87.534653 
	C187.580490,88.408760 187.383286,89.282867 187.151672,90.073494 
	C187.151672,90.073494 187.237183,90.044518 186.740662,90.529869 
	C186.566788,91.412552 186.392914,92.295227 186.209885,93.092766 
	C186.209885,93.092766 186.295502,93.091141 185.694672,93.508377 
	C184.530029,97.506516 183.365387,101.504654 182.235321,105.782013 
	C182.235321,105.782013 182.086441,106.020744 181.400253,106.299606 
	C180.954590,108.215393 180.508926,110.131180 180.008102,112.009354 
	C180.008102,112.009354 180.067078,112.052277 179.488037,112.367088 
	C178.678497,113.606552 177.868973,114.846008 176.993515,116.029144 
	C176.993515,116.029144 177.072433,116.063538 176.527100,116.023705 
	C175.829453,116.107811 175.131790,116.191917 173.567032,116.573662 
	C172.045670,116.654404 170.524292,116.735153 168.268860,116.444565 
	C161.734467,116.354652 155.192398,116.053337 148.669907,116.290504 
	C146.414322,116.372513 144.207428,117.792816 141.319870,118.744606 
	C140.871689,118.748238 140.423523,118.751862 139.242523,118.402580 
	C131.831238,118.619850 124.419945,118.837120 116.101936,119.039536 
	C110.312111,119.379639 104.509224,119.590836 98.744171,120.175323 
	C97.670639,120.284172 96.749199,121.893112 96.233383,123.327202 
	C99.298592,126.815971 102.384392,130.286911 105.425430,133.796616 
	C118.339310,148.700729 131.239914,163.616348 144.385956,179.072601 
	C144.635254,179.379425 144.884552,179.686234 145.005585,179.960129 
	C145.005585,179.960129 145.039352,179.832062 145.340485,180.273163 
	C145.603882,180.510803 145.867279,180.748428 146.016464,180.986374 
	C146.016464,180.986374 146.016876,180.872131 146.317291,181.298737 
	C146.573807,181.532104 146.830338,181.765488 147.001740,181.995941 
	C147.001740,181.995941 147.004776,181.910843 147.294647,182.331024 
	C147.549881,182.554062 147.805115,182.777100 147.998840,182.997772 
	C147.998840,182.997772 148.021393,182.940506 148.153671,183.529083 
	C148.524826,183.987442 148.895981,184.445786 149.128891,184.955841 
	C149.128891,184.955841 149.080261,184.816467 149.388428,185.251068 
	C149.658203,185.480591 149.927994,185.710114 150.070587,185.958069 
	C150.070587,185.958069 150.054764,185.830536 150.355789,186.263489 
	C150.615479,186.498230 150.875183,186.732956 151.039795,186.980087 
	C151.039795,186.980087 151.028793,186.884842 151.344360,187.300659 
	C151.608551,187.526627 151.872742,187.752594 152.025970,187.985321 
	C152.025970,187.985321 152.020187,187.874313 152.326996,188.298386 
	C152.587540,188.528931 152.848083,188.759491 153.011734,188.990799 
z"/>
<path fill="#FEFDFE" opacity="1.000000" stroke="none" 
	d="
M198.831207,299.972443 
	C185.575150,316.591034 172.335678,333.222931 159.032318,349.803558 
	C157.940491,351.164368 156.413895,352.176331 155.039215,352.687164 
	C154.993805,299.717804 155.007553,247.411667 154.963440,195.105591 
	C154.961975,193.374496 154.373291,191.643906 154.058350,189.913071 
	C154.058334,189.913071 154.026489,189.973724 153.979645,189.716919 
	C153.625717,189.271393 153.318604,189.082657 153.011505,188.893921 
	C153.011505,188.893921 153.011734,188.990799 152.983612,188.716705 
	C152.643738,188.253189 152.331955,188.063751 152.020187,187.874313 
	C152.020187,187.874313 152.025970,187.985321 152.010071,187.698868 
	C151.672394,187.236557 151.350586,187.060699 151.028793,186.884842 
	C151.028793,186.884842 151.039795,186.980087 151.045853,186.676727 
	C150.719528,186.192429 150.387146,186.011475 150.054764,185.830536 
	C150.054764,185.830536 150.070587,185.958069 150.089981,185.642700 
	C149.766342,185.157028 149.423309,184.986740 149.080261,184.816467 
	C149.080261,184.816467 149.128891,184.955841 149.198975,184.616394 
	C148.853180,183.831451 148.437286,183.385986 148.021393,182.940506 
	C148.021393,182.940506 147.998840,182.997772 147.941422,182.744293 
	C147.590927,182.297501 147.297852,182.104172 147.004776,181.910843 
	C147.004776,181.910843 147.001740,181.995941 146.958801,181.731842 
	C146.616211,181.269196 146.316544,181.070663 146.016876,180.872131 
	C146.016876,180.872131 146.016464,180.986374 145.991714,180.711288 
	C145.657761,180.234818 145.348557,180.033447 145.039352,179.832062 
	C145.039352,179.832062 145.005585,179.960129 145.010880,179.670715 
	C144.725906,179.096771 144.435638,178.812256 144.145370,178.527756 
	C131.239914,163.616348 118.339310,148.700729 105.425430,133.796616 
	C102.384392,130.286911 99.298592,126.815971 96.310654,122.812263 
	C103.612953,121.543533 110.837975,120.789742 118.523132,120.082642 
	C125.980614,119.671379 132.977982,119.213432 139.975342,118.755493 
	C140.423523,118.751862 140.871689,118.748238 142.080231,118.735458 
	C151.561356,118.089500 160.282150,117.452698 169.002930,116.815903 
	C170.524292,116.735153 172.045670,116.654404 174.249741,116.532341 
	C175.645782,116.348526 176.359100,116.206024 177.072433,116.063538 
	C177.072433,116.063538 176.993515,116.029144 177.387146,116.064316 
	C178.542892,114.750420 179.304993,113.401352 180.067078,112.052277 
	C180.067078,112.052277 180.008102,112.009354 180.250793,111.750168 
	C181.024475,109.667580 181.555466,107.844162 182.086456,106.020744 
	C182.086441,106.020744 182.235321,105.782013 182.465240,105.349968 
	C183.895279,100.975662 185.095383,97.033401 186.295502,93.091141 
	C186.295502,93.091141 186.209885,93.092766 186.460266,92.898804 
	C186.886154,91.818062 187.061661,90.931290 187.237183,90.044518 
	C187.237183,90.044518 187.151672,90.073494 187.423523,89.891647 
	C187.899841,88.834579 188.104279,87.959358 188.308716,87.084145 
	C188.308731,87.084145 188.218185,87.094681 188.473770,86.893478 
	C189.183945,85.126053 189.638519,83.559822 190.093109,81.993599 
	C190.093109,81.993599 190.231155,81.777885 190.456497,81.361847 
	C191.480438,78.284767 192.279022,75.623734 193.077606,72.962692 
	C193.077606,72.962692 193.215363,72.772972 193.435486,72.358009 
	C194.182388,69.976318 194.709152,68.009583 195.235916,66.042854 
	C195.235916,66.042854 195.150711,66.082481 195.431290,65.887886 
	C196.164932,64.119293 196.617996,62.545303 197.071060,60.971310 
	C197.071060,60.971310 197.206223,60.774128 197.419601,60.390762 
	C197.786118,59.318726 197.939255,58.630054 198.092377,57.941383 
	C198.092377,57.941380 198.221695,57.753582 198.432785,57.382225 
	C198.790543,56.316757 198.937210,55.622646 199.083862,54.928532 
	C199.083862,54.928532 199.212616,54.754345 199.424057,54.368919 
	C200.109131,52.337086 200.582779,50.690678 201.056412,49.044266 
	C202.069931,50.261879 203.460129,51.323215 204.039948,52.720757 
	C211.692871,71.166634 219.343338,89.615555 226.706955,108.177750 
	C228.218201,111.987282 230.029968,112.896126 234.095123,112.582466 
	C256.456238,110.857094 278.848389,109.533203 301.231293,108.093040 
	C302.711212,107.997810 304.202576,108.080635 306.594177,108.080635 
	C305.429871,109.958992 304.640289,111.306808 303.780762,112.608452 
	C289.193359,134.699234 274.636444,156.810425 259.953552,178.837616 
	C258.113464,181.598099 257.670654,183.910339 258.995667,187.104370 
	C270.920471,215.850113 282.677155,244.665634 294.747375,274.108093 
	C294.214478,276.983246 300.339630,280.188171 294.039856,281.639069 
	C293.583282,281.510162 293.126709,281.381287 291.894623,281.153961 
	C286.095215,280.604584 281.071320,280.153625 276.047424,279.702667 
	C275.284912,279.532379 274.522400,279.362061 272.953674,279.107239 
	C267.110107,278.545258 262.072754,278.067841 257.035431,277.590454 
	C256.572601,277.478973 256.109772,277.367523 254.875229,277.166504 
	C248.744751,276.557739 243.385986,276.038574 238.027237,275.519409 
	C237.577057,275.418152 237.126892,275.316864 235.909302,275.128113 
	C231.208679,274.632202 227.227539,274.476501 223.356201,273.742065 
	C219.700165,273.048431 217.709625,274.427521 216.611725,277.706207 
	C216.611725,277.706207 216.700806,277.832703 216.478867,277.850586 
	C216.084183,278.200958 215.911423,278.533386 215.738647,278.865814 
	C215.738647,278.865814 215.812637,278.748169 215.491699,278.856476 
	C214.739059,279.621765 214.307373,280.278748 213.875671,280.935699 
	C213.875671,280.935699 213.946243,280.969360 213.712830,281.031372 
	C213.308899,281.396301 213.138382,281.699188 212.967865,282.002075 
	C212.967865,282.002075 213.010254,282.003448 212.720795,282.151794 
	C211.292603,283.888123 210.153854,285.476135 209.015106,287.064117 
	C209.015106,287.064117 208.854752,287.198914 208.578705,287.465088 
	C207.811142,288.455505 207.319611,289.179810 206.828094,289.904114 
	C206.828094,289.904114 206.902237,289.919861 206.618210,290.036133 
	C205.772171,291.007996 205.210175,291.863556 204.648178,292.719116 
	C204.648178,292.719116 204.720123,292.782410 204.450226,292.868530 
	C203.740906,293.611481 203.301498,294.268311 202.862076,294.925171 
	C202.862076,294.925171 202.933273,294.969818 202.704849,295.029602 
	C202.300797,295.390472 202.125168,295.691559 201.949539,295.992645 
	C201.949539,295.992645 202.004852,296.003113 201.768768,296.083801 
	C201.370163,296.450043 201.207642,296.735596 201.045105,297.021118 
	C201.045090,297.021118 200.996307,297.006592 200.755386,297.195557 
	C199.953384,298.247131 199.392288,299.109802 198.831207,299.972443 
M237.107971,143.703140 
	C217.632996,143.680817 198.157272,143.741165 178.683670,143.566513 
	C174.782562,143.531525 173.293915,144.749680 173.582291,148.705750 
	C173.871948,152.679565 173.850327,156.704803 173.585526,160.682236 
	C173.316299,164.726166 175.347534,165.944504 178.895828,166.004517 
	C184.210236,166.094376 189.523071,166.276886 194.694595,167.295547 
	C194.672653,193.241791 194.716171,219.188446 194.557022,245.133850 
	C194.533600,248.953613 195.894211,250.072693 199.511826,249.891953 
	C204.322983,249.651581 209.174683,249.577362 213.973373,249.924194 
	C218.282852,250.235657 219.241379,248.501968 219.215073,244.489944 
	C219.055908,220.207550 219.116501,195.923553 219.174103,171.640259 
	C219.178650,169.724991 219.718582,167.810989 220.943497,165.989563 
	C227.172333,165.989563 233.401169,165.989563 240.089188,165.989563 
	C240.089188,158.862167 240.154587,152.439011 239.998947,146.021210 
	C239.981293,145.293472 238.720383,144.595871 237.107971,143.703140 
z"/>
<path fill="#9577D3" opacity="1.000000" stroke="none" 
	d="
M154.036606,190.387375 
	C154.373291,191.643906 154.961975,193.374496 154.963440,195.105591 
	C155.007553,247.411667 154.993805,299.717804 154.937637,352.485596 
	C154.588684,351.008148 154.032883,349.069214 154.031387,347.129852 
	C153.991135,295.040466 154.007812,242.951080 154.036606,190.387375 
z"/>
<path fill="#A081D6" opacity="1.000000" stroke="none" 
	d="
M168.635895,116.630234 
	C160.282150,117.452698 151.561356,118.089500 142.409424,118.664062 
	C144.207428,117.792816 146.414322,116.372513 148.669907,116.290504 
	C155.192398,116.053337 161.734467,116.354652 168.635895,116.630234 
z"/>
<path fill="#9C7FD7" opacity="1.000000" stroke="none" 
	d="
M217.018768,277.647278 
	C217.709625,274.427521 219.700165,273.048431 223.356201,273.742065 
	C227.227539,274.476501 231.208679,274.632202 235.561188,275.139526 
	C229.795624,276.021729 223.610718,276.805054 217.018768,277.647278 
z"/>
<path fill="#A285DA" opacity="1.000000" stroke="none" 
	d="
M118.063004,120.035957 
	C110.837975,120.789742 103.612953,121.543533 96.072739,122.553535 
	C96.749199,121.893112 97.670639,120.284172 98.744171,120.175323 
	C104.509224,119.590836 110.312111,119.379639 116.711563,119.229637 
	C117.547981,119.649796 117.795250,119.855202 118.063004,120.035957 
z"/>
<path fill="#A081D6" opacity="1.000000" stroke="none" 
	d="
M118.523132,120.082642 
	C117.795250,119.855202 117.547981,119.649796 117.164925,119.237068 
	C124.419945,118.837120 131.831238,118.619850 139.608932,118.579041 
	C132.977982,119.213432 125.980614,119.671379 118.523132,120.082642 
z"/>
<path fill="#9C7FD7" opacity="1.000000" stroke="none" 
	d="
M257.207550,277.878632 
	C262.072754,278.067841 267.110107,278.545258 272.559509,279.116943 
	C267.774261,278.863098 262.576965,278.514954 257.207550,277.878632 
z"/>
<path fill="#9C7FD7" opacity="1.000000" stroke="none" 
	d="
M276.243896,279.961548 
	C281.071320,280.153625 286.095215,280.604584 291.534882,281.155090 
	C286.780548,280.909912 281.610443,280.565155 276.243896,279.961548 
z"/>
<path fill="#9C7FD7" opacity="1.000000" stroke="none" 
	d="
M238.231155,275.799530 
	C243.385986,276.038574 248.744751,276.557739 254.515640,277.185425 
	C249.430206,276.889221 243.932648,276.484436 238.231155,275.799530 
z"/>
<path fill="#9C7FD7" opacity="1.000000" stroke="none" 
	d="
M294.154907,281.919617 
	C300.339630,280.188171 294.214478,276.983246 294.978516,274.381348 
	C295.931915,276.517914 297.622559,279.003448 297.713470,281.546204 
	C297.810974,284.273987 295.897247,284.266418 294.154907,281.919617 
z"/>
<path fill="#A081D6" opacity="1.000000" stroke="none" 
	d="
M185.995087,93.299759 
	C185.095383,97.033401 183.895279,100.975662 182.447968,105.210358 
	C183.365387,101.504654 184.530029,97.506516 185.995087,93.299759 
z"/>
<path fill="#A081D6" opacity="1.000000" stroke="none" 
	d="
M192.778137,73.174507 
	C192.279022,75.623734 191.480438,78.284767 190.429733,81.236618 
	C190.944641,78.813736 191.711655,76.100029 192.778137,73.174507 
z"/>
<path fill="#9C7FD7" opacity="1.000000" stroke="none" 
	d="
M209.355316,286.973145 
	C210.153854,285.476135 211.292603,283.888123 212.710052,282.133545 
	C211.891006,283.605347 210.793259,285.243774 209.355316,286.973145 
z"/>
<path fill="#A081D6" opacity="1.000000" stroke="none" 
	d="
M181.743347,106.160172 
	C181.555466,107.844162 181.024475,109.667580 180.278381,111.768982 
	C180.508926,110.131180 180.954590,108.215393 181.743347,106.160172 
z"/>
<path fill="#A081D6" opacity="1.000000" stroke="none" 
	d="
M179.777557,112.209686 
	C179.304993,113.401352 178.542892,114.750420 177.420105,116.092476 
	C177.868973,114.846008 178.678497,113.606552 179.777557,112.209686 
z"/>
<path fill="#A081D6" opacity="1.000000" stroke="none" 
	d="
M189.750381,82.133545 
	C189.638519,83.559822 189.183945,85.126053 188.482971,86.938110 
	C188.626953,85.547127 189.017303,83.910301 189.750381,82.133545 
z"/>
<path fill="#A081D6" opacity="1.000000" stroke="none" 
	d="
M194.965118,66.304794 
	C194.709152,68.009583 194.182388,69.976318 193.406647,72.244385 
	C193.669891,70.552727 194.182114,68.559731 194.965118,66.304794 
z"/>
<path fill="#A081D6" opacity="1.000000" stroke="none" 
	d="
M200.747452,49.255516 
	C200.582779,50.690678 200.109131,52.337086 199.381561,54.269299 
	C199.564590,52.858986 200.001541,51.162872 200.747452,49.255516 
z"/>
<path fill="#A081D6" opacity="1.000000" stroke="none" 
	d="
M196.773712,61.182560 
	C196.617996,62.545303 196.164932,64.119293 195.453705,65.929184 
	C195.622482,64.574654 196.049423,62.984234 196.773712,61.182560 
z"/>
<path fill="#9C7FD7" opacity="1.000000" stroke="none" 
	d="
M205.000397,292.685913 
	C205.210175,291.863556 205.772171,291.007996 206.607819,289.999695 
	C206.371841,290.782196 205.862228,291.717468 205.000397,292.685913 
z"/>
<path fill="#9C7FD7" opacity="1.000000" stroke="none" 
	d="
M214.189850,280.852051 
	C214.307373,280.278748 214.739059,279.621765 215.431793,278.821289 
	C215.296555,279.374634 214.900284,280.071533 214.189850,280.852051 
z"/>
<path fill="#9C7FD7" opacity="1.000000" stroke="none" 
	d="
M203.176895,294.842957 
	C203.301498,294.268311 203.740906,293.611481 204.449738,292.820618 
	C204.310013,293.377960 203.900864,294.069366 203.176895,294.842957 
z"/>
<path fill="#9C7FD7" opacity="1.000000" stroke="none" 
	d="
M207.168060,289.803497 
	C207.319611,289.179810 207.811142,288.455505 208.597198,287.568176 
	C208.430496,288.171051 207.969284,288.936951 207.168060,289.803497 
z"/>
<path fill="#9C7FD7" opacity="1.000000" stroke="none" 
	d="
M199.116150,299.822388 
	C199.392288,299.109802 199.953384,298.247131 200.774139,297.213074 
	C200.489563,297.918549 199.945328,298.795441 199.116150,299.822388 
z"/>
<path fill="#A081D6" opacity="1.000000" stroke="none" 
	d="
M188.043213,87.309402 
	C188.104279,87.959358 187.899841,88.834579 187.440735,89.933388 
	C187.383286,89.282867 187.580490,88.408760 188.043213,87.309402 
z"/>
<path fill="#A081D6" opacity="1.000000" stroke="none" 
	d="
M186.988922,90.287193 
	C187.061661,90.931290 186.886154,91.818062 186.464844,92.941376 
	C186.392914,92.295227 186.566788,91.412552 186.988922,90.287193 
z"/>
<path fill="#A081D6" opacity="1.000000" stroke="none" 
	d="
M176.799774,116.043617 
	C176.359100,116.206024 175.645782,116.348526 174.683289,116.383522 
	C175.131790,116.191917 175.829453,116.107811 176.799774,116.043617 
z"/>
<path fill="#A081D6" opacity="1.000000" stroke="none" 
	d="
M198.865128,55.208031 
	C198.937210,55.622646 198.790543,56.316757 198.395981,57.274326 
	C198.314178,56.854366 198.480286,56.170948 198.865128,55.208031 
z"/>
<path fill="#A081D6" opacity="1.000000" stroke="none" 
	d="
M197.871155,58.218094 
	C197.939255,58.630054 197.786118,59.318726 197.391113,60.274681 
	C197.316132,59.859577 197.483032,59.177193 197.871155,58.218094 
z"/>
<path fill="#9577D3" opacity="1.000000" stroke="none" 
	d="
M148.087524,183.234802 
	C148.437286,183.385986 148.853180,183.831451 149.268097,184.590546 
	C148.895981,184.445786 148.524826,183.987442 148.087524,183.234802 
z"/>
<path fill="#9577D3" opacity="1.000000" stroke="none" 
	d="
M145.189911,180.052612 
	C145.348557,180.033447 145.657761,180.234818 146.048828,180.711121 
	C145.867279,180.748428 145.603882,180.510803 145.189911,180.052612 
z"/>
<path fill="#9C7FD7" opacity="1.000000" stroke="none" 
	d="
M201.234741,296.872681 
	C201.207642,296.735596 201.370163,296.450043 201.761261,296.056671 
	C201.848923,296.242065 201.660446,296.500519 201.234741,296.872681 
z"/>
<path fill="#9C7FD7" opacity="1.000000" stroke="none" 
	d="
M202.154419,295.843994 
	C202.125168,295.691559 202.300797,295.390472 202.726517,294.993591 
	C202.770844,295.163635 202.565063,295.429474 202.154419,295.843994 
z"/>
<path fill="#9C7FD7" opacity="1.000000" stroke="none" 
	d="
M213.168884,281.849976 
	C213.138382,281.699188 213.308899,281.396301 213.728943,280.995758 
	C213.775604,281.164703 213.572754,281.431305 213.168884,281.849976 
z"/>
<path fill="#9577D3" opacity="1.000000" stroke="none" 
	d="
M144.265656,178.800171 
	C144.435638,178.812256 144.725906,179.096771 145.075012,179.687164 
	C144.884552,179.686234 144.635254,179.379425 144.265656,178.800171 
z"/>
<path fill="#9577D3" opacity="1.000000" stroke="none" 
	d="
M151.186584,187.092743 
	C151.350586,187.060699 151.672394,187.236557 152.065552,187.695496 
	C151.872742,187.752594 151.608551,187.526627 151.186584,187.092743 
z"/>
<path fill="#9C7FD7" opacity="1.000000" stroke="none" 
	d="
M215.965790,278.726501 
	C215.911423,278.533386 216.084183,278.200958 216.540939,277.804413 
	C216.614273,278.022614 216.403580,278.304901 215.965790,278.726501 
z"/>
<path fill="#9577D3" opacity="1.000000" stroke="none" 
	d="
M146.167084,181.085434 
	C146.316544,181.070663 146.616211,181.269196 147.001373,181.733307 
	C146.830338,181.765488 146.573807,181.532104 146.167084,181.085434 
z"/>
<path fill="#9577D3" opacity="1.000000" stroke="none" 
	d="
M147.149719,182.120941 
	C147.297852,182.104172 147.590927,182.297501 147.972168,182.745468 
	C147.805115,182.777100 147.549881,182.554062 147.149719,182.120941 
z"/>
<path fill="#9577D3" opacity="1.000000" stroke="none" 
	d="
M149.234344,185.033768 
	C149.423309,184.986740 149.766342,185.157028 150.153564,185.633484 
	C149.927994,185.710114 149.658203,185.480591 149.234344,185.033768 
z"/>
<path fill="#9577D3" opacity="1.000000" stroke="none" 
	d="
M150.205276,186.047012 
	C150.387146,186.011475 150.719528,186.192429 151.093384,186.670532 
	C150.875183,186.732956 150.615479,186.498230 150.205276,186.047012 
z"/>
<path fill="#9577D3" opacity="1.000000" stroke="none" 
	d="
M153.163483,189.103638 
	C153.318604,189.082657 153.625717,189.271393 154.011993,189.728210 
	C153.832581,189.768677 153.574020,189.541016 153.163483,189.103638 
z"/>
<path fill="#9577D3" opacity="1.000000" stroke="none" 
	d="
M152.173584,188.086349 
	C152.331955,188.063751 152.643738,188.253189 153.032074,188.716339 
	C152.848083,188.759491 152.587540,188.528931 152.173584,188.086349 
z"/>
<path fill="#9B70E8" opacity="1.000000" stroke="none" 
	d="
M220.009689,165.896423 
	C219.718582,167.810989 219.178650,169.724991 219.174103,171.640259 
	C219.116501,195.923553 219.055908,220.207550 219.215073,244.489944 
	C219.241379,248.501968 218.282852,250.235657 213.973373,249.924194 
	C209.174683,249.577362 204.322983,249.651581 199.511826,249.891953 
	C195.894211,250.072693 194.533600,248.953613 194.557022,245.133850 
	C194.716171,219.188446 194.672653,193.241791 194.665588,166.466034 
	C192.361786,165.094238 190.095245,164.123627 187.810837,164.079590 
	C173.497864,163.803619 175.232147,165.743286 174.929947,151.314072 
	C174.830734,146.576599 176.470993,144.876877 181.259476,144.924774 
	C200.172531,145.114014 219.088623,144.999039 238.225464,145.345657 
	C238.628952,150.166382 238.711685,154.645203 239.020615,159.108383 
	C239.315292,163.365891 237.625732,165.128326 233.246704,165.056213 
	C228.840164,164.983673 224.422485,165.588440 220.009689,165.896423 
z"/>
<path fill="#9576D7" opacity="1.000000" stroke="none" 
	d="
M238.003586,144.996918 
	C219.088623,144.999039 200.172531,145.114014 181.259476,144.924774 
	C176.470993,144.876877 174.830734,146.576599 174.929947,151.314072 
	C175.232147,165.743286 173.497864,163.803619 187.810837,164.079590 
	C190.095245,164.123627 192.361786,165.094238 194.736588,166.028259 
	C189.523071,166.276886 184.210236,166.094376 178.895828,166.004517 
	C175.347534,165.944504 173.316299,164.726166 173.585526,160.682236 
	C173.850327,156.704803 173.871948,152.679565 173.582291,148.705750 
	C173.293915,144.749680 174.782562,143.531525 178.683670,143.566513 
	C198.157272,143.741165 217.632996,143.680817 237.561478,144.071869 
	C238.011200,144.626053 238.007401,144.811478 238.003586,144.996918 
z"/>
<path fill="#9577CA" opacity="1.000000" stroke="none" 
	d="
M238.225464,145.345657 
	C238.007401,144.811478 238.011200,144.626053 238.025482,144.162445 
	C238.720383,144.595871 239.981293,145.293472 239.998947,146.021210 
	C240.154587,152.439011 240.089188,158.862167 240.089188,165.989563 
	C233.401169,165.989563 227.172333,165.989563 220.476593,165.942993 
	C224.422485,165.588440 228.840164,164.983673 233.246704,165.056213 
	C237.625732,165.128326 239.315292,163.365891 239.020615,159.108383 
	C238.711685,154.645203 238.628952,150.166382 238.225464,145.345657 
z"/>
</svg>